<?xml version="1.0" encoding="utf-8"?>
<!-- Generator: Adobe Illustrator 25.2.3, SVG Export Plug-In . SVG Version: 6.00 Build 0)  -->
<svg version="1.1" id="Ebene_1" xmlns="http://www.w3.org/2000/svg" xmlns:xlink="http://www.w3.org/1999/xlink" x="0px" y="0px"
	 viewBox="0 0 477.9 477.9" style="enable-background:new 0 0 477.9 477.9;" xml:space="preserve">
<style type="text/css">
	.st0{fill:#FFFFFF;}
	.st1{fill:#FFFFFF;stroke:#FFFFFF;stroke-miterlimit:10;}
</style>
<g>
	<g>
		<path d="M392.7,0H85.5C38.4,0.1,0.3,38.2,0.2,85.3v307.2c0.1,47.1,38.2,85.3,85.3,85.3h307.2c47.1-0.1,85.3-38.2,85.3-85.3V85.3
			C478,38.2,439.8,0.1,392.7,0z M443.9,392.5c0,28.3-22.9,51.2-51.2,51.2H85.5c-28.3,0-51.2-22.9-51.2-51.2V85.3
			c0-28.3,22.9-51.2,51.2-51.2h307.2c28.3,0,51.2,22.9,51.2,51.2L443.9,392.5L443.9,392.5z"/>
	</g>
</g>
<g>
	<path class="st0" d="M384.5,34.1c0,0-277.1,0-299,0c-34.5,0-51.2,29.2-51.2,51.2v301.2c0,36.2,12.4,57.2,60,57.2h294
		c32.4,0,56.8-19,56.8-59.4V99C445.1,58.6,429.9,34.1,384.5,34.1z M414.7,370.6c0,24.3-19.6,43.9-43.9,43.9H107.4
		c-24.3,0-43.9-19.6-43.9-43.9V107.3c0-24.3,19.6-43.9,43.9-43.9h263.4c24.3,0,43.9,19.6,43.9,43.9L414.7,370.6L414.7,370.6z"/>
</g>
<rect x="58" y="53" class="st1" width="365.5" height="364.4"/>
<g transform="translate(0 -1002.4)">
	<path d="M226.9,1093.1h24.3c7.7,0,14,6.3,14,14v268.6c0,7.7-6.3,14-14,14h-24.3c-7.7,0-14-6.3-14-14v-268.6
		C212.9,1099.4,219.1,1093.1,226.9,1093.1z"/>
	<path d="M387.2,1229.2v24.3c0,7.7-6.3,14-14,14H104.6c-7.7,0-14-6.3-14-14v-24.3c0-7.7,6.3-14,14-14h268.6
		C381,1215.2,387.2,1221.5,387.2,1229.2z"/>
</g>
</svg>
