<?xml version="1.0" encoding="utf-8"?>
<!-- Generator: Adobe Illustrator 25.2.3, SVG Export Plug-In . SVG Version: 6.00 Build 0)  -->
<svg version="1.1" id="Ebene_1" xmlns="http://www.w3.org/2000/svg" xmlns:xlink="http://www.w3.org/1999/xlink" x="0px" y="0px"
	 viewBox="0 0 477.9 477.9" style="enable-background:new 0 0 477.9 477.9;" xml:space="preserve">
<style type="text/css">
	.st0{fill:#FFFFFF;}
	.st1{fill:#FFFFFF;stroke:#FFFFFF;stroke-miterlimit:10;}
	.st2{stroke:#000000;stroke-miterlimit:10;}
</style>
<g>
	<g>
		<path d="M392.7,0H85.5C38.4,0.1,0.3,38.2,0.2,85.3v307.2c0.1,47.1,38.2,85.3,85.3,85.3h307.2c47.1-0.1,85.3-38.2,85.3-85.3V85.3
			C478,38.2,439.8,0.1,392.7,0z M443.9,392.5c0,28.3-22.9,51.2-51.2,51.2H85.5c-28.3,0-51.2-22.9-51.2-51.2V85.3
			c0-28.3,22.9-51.2,51.2-51.2h307.2c28.3,0,51.2,22.9,51.2,51.2L443.9,392.5L443.9,392.5z"/>
	</g>
</g>
<g>
	<path class="st0" d="M384.5,34.1c0,0-277.1,0-299,0c-34.5,0-51.2,29.2-51.2,51.2v301.2c0,36.2,12.4,57.2,60,57.2h294
		c32.4,0,56.8-19,56.8-59.4V99C445.1,58.6,429.9,34.1,384.5,34.1z M414.7,370.6c0,24.3-19.6,43.9-43.9,43.9H107.4
		c-24.3,0-43.9-19.6-43.9-43.9V107.3c0-24.3,19.6-43.9,43.9-43.9h263.4c24.3,0,43.9,19.6,43.9,43.9L414.7,370.6L414.7,370.6z"/>
</g>
<rect x="57" y="53" class="st1" width="366.5" height="364.4"/>
<g>
	<path class="st2" d="M164.6,220.3h146.7c6.3,0,12.1-3.5,15-9.2c2.9-5.6,2.4-12.4-1.3-17.6l-67-94.1c-4.6-6.5-12.2-10.4-20.2-10.4
		s-15.5,3.9-20.2,10.4l-67,94.1c-3.7,5.2-4.2,11.9-1.3,17.6C152.4,216.8,158.2,220.3,164.6,220.3z"/>
	<path class="st2" d="M311.2,258.4H164.6c-6.3,0-12.1,3.5-15,9.2c-2.9,5.6-2.4,12.4,1.3,17.6l67,94.1c4.6,6.5,12.2,10.4,20.2,10.4
		s15.5-3.9,20.2-10.4l67-94.1c3.7-5.2,4.2-11.9,1.3-17.6C323.4,261.9,317.6,258.4,311.2,258.4z"/>
</g>
</svg>
