<?xml version="1.0" encoding="utf-8"?>
<!-- Generator: Adobe Illustrator 25.3.1, SVG Export Plug-In . SVG Version: 6.00 Build 0)  -->
<svg version="1.1" id="Ebene_1" xmlns="http://www.w3.org/2000/svg" xmlns:xlink="http://www.w3.org/1999/xlink" x="0px" y="0px"
	 viewBox="0 0 477.9 477.9" style="enable-background:new 0 0 477.9 477.9;" xml:space="preserve">
<style type="text/css">
	.st0{fill:#FFFFFF;}
	.st1{fill:#FFFFFF;stroke:#FFFFFF;stroke-miterlimit:10;}
	.st2{fill:none;stroke:#000000;stroke-width:10;stroke-miterlimit:10;}
	.st3{fill:none;stroke:#000000;stroke-width:8;stroke-miterlimit:10;}
</style>
<g>
	<g>
		<path d="M392.7,0H85.5C38.4,0.1,0.3,38.2,0.2,85.3v307.2c0.1,47.1,38.2,85.3,85.3,85.3h307.2c47.1-0.1,85.3-38.2,85.3-85.3V85.3
			C478,38.2,439.8,0.1,392.7,0z M443.9,392.5c0,28.3-22.9,51.2-51.2,51.2H85.5c-28.3,0-51.2-22.9-51.2-51.2V85.3
			c0-28.3,22.9-51.2,51.2-51.2h307.2c28.3,0,51.2,22.9,51.2,51.2L443.9,392.5L443.9,392.5z"/>
	</g>
</g>
<g>
	<path class="st0" d="M384.5,34.1c0,0-277.1,0-299,0c-34.5,0-51.2,29.2-51.2,51.2v301.2c0,36.2,12.4,57.2,60,57.2h294
		c32.4,0,56.8-19,56.8-59.4V99C445.1,58.6,429.9,34.1,384.5,34.1z M414.7,370.6c0,24.3-19.6,43.9-43.9,43.9H107.4
		c-24.3,0-43.9-19.6-43.9-43.9V107.3c0-24.3,19.6-43.9,43.9-43.9h263.4c24.3,0,43.9,19.6,43.9,43.9L414.7,370.6L414.7,370.6z"/>
</g>
<rect x="54.8" y="49" class="st1" width="364" height="373.9"/>
<path class="st2" d="M372,97.4"/>
<path class="st3" d="M795.2,353.3"/>
<g>
	<polygon points="129.7,393.3 350.5,393.3 350.5,85.1 127,84.3 126.3,393.2 	"/>
	<ellipse class="st0" cx="210.9" cy="146.9" rx="26.6" ry="26.4"/>
	<path class="st0" d="M196,393.5l-36.2,0l64.4-129.6l-13.3-27.5l-6.6-13.2c0,0-17.6,22.4-26.3,29.3l-51.9,0.3v-24.4h39.5l32-41
		c0,0,4.9-3.7,9.8-5.7s6.9-1.7,6.9-1.7L290,179c0,0,8.1,0,10.4,2.3c2.3,2.3,5.5,4.6,5.5,4.6l27.7,44.2c0,0,0.6,6.6-2.6,11.8
		c-2.6,4.2-11,5.4-15.9,3.4c-4.9-2-26.3-40.4-26.3-40.4l-28.9-0.6c0,0,23.4,41.3,27.7,51.9c4.2,10.3,3.2,52.2,3.2,64.3l60.9-0.3
		v30.1h-81.1c0,0-8.4,2.6-10.4-9.8s-5.8-57.9-5.8-57.9l-54,102.1"/>
</g>
</svg>
