<?xml version="1.0" encoding="utf-8"?>
<!-- Generator: Adobe Illustrator 25.2.3, SVG Export Plug-In . SVG Version: 6.00 Build 0)  -->
<svg version="1.1" id="Ebene_1" xmlns="http://www.w3.org/2000/svg" xmlns:xlink="http://www.w3.org/1999/xlink" x="0px" y="0px"
	 viewBox="0 0 477.9 477.9" style="enable-background:new 0 0 477.9 477.9;" xml:space="preserve">
<style type="text/css">
	.st0{fill:#FFFFFF;}
	.st1{fill:#010002;stroke:#FFFFFF;stroke-miterlimit:10;}
</style>
<g>
	<g>
		<path d="M392.7,0H85.5C38.4,0.1,0.3,38.2,0.2,85.3v307.2c0.1,47.1,38.2,85.3,85.3,85.3h307.2c47.1-0.1,85.3-38.2,85.3-85.3V85.3
			C478,38.2,439.8,0.1,392.7,0z M443.9,392.5c0,28.3-22.9,51.2-51.2,51.2H85.5c-28.3,0-51.2-22.9-51.2-51.2V85.3
			c0-28.3,22.9-51.2,51.2-51.2h307.2c28.3,0,51.2,22.9,51.2,51.2L443.9,392.5L443.9,392.5z"/>
	</g>
</g>
<g>
	<path class="st0" d="M384.5,34.1c0,0-277.1,0-299,0c-34.5,0-51.2,29.2-51.2,51.2v301.2c0,36.2,12.4,57.2,60,57.2h294
		c32.4,0,56.8-19,56.8-59.4V99C445.1,58.6,429.9,34.1,384.5,34.1z M414.7,370.6c0,24.3-19.6,43.9-43.9,43.9H107.4
		c-24.3,0-43.9-19.6-43.9-43.9V107.3c0-24.3,19.6-43.9,43.9-43.9h263.4c24.3,0,43.9,19.6,43.9,43.9L414.7,370.6L414.7,370.6z"/>
</g>
<rect x="52" y="46.9" class="st0" width="372" height="382"/>
<g>
	<path class="st1" d="M384,137.2H170l-6.1-35.6h-54.2c-8.8,0-15.8,7.1-15.8,15.8v15.8h43.4l27.9,162.3c0.6,3.6,4.1,6.5,7.7,6.5
		h187.4c8.8,0,15.8-7.1,15.8-15.8v-15.8H192.9l-3.9-22.4h144.8c17.5,0,34-14,36.9-31.2L384,137.2z"/>
	
		<ellipse transform="matrix(7.088897e-02 -0.9975 0.9975 7.088897e-02 -141.9494 545.4175)" class="st1" cx="221.8" cy="348.9" rx="27.4" ry="27.4"/>
	<path class="st1" d="M289.4,348.9c0,15.1,12.2,27.4,27.3,27.4c15.1,0,27.4-12.3,27.4-27.4c0-15.1-12.3-27.4-27.4-27.4
		C301.7,321.5,289.4,333.8,289.4,348.9z"/>
</g>
</svg>
