<?xml version="1.0" encoding="utf-8"?>
<!-- Generator: Adobe Illustrator 25.3.1, SVG Export Plug-In . SVG Version: 6.00 Build 0)  -->
<svg version="1.1" id="Ebene_1" xmlns="http://www.w3.org/2000/svg" xmlns:xlink="http://www.w3.org/1999/xlink" x="0px" y="0px"
	 viewBox="0 0 477.9 477.9" style="enable-background:new 0 0 477.9 477.9;" xml:space="preserve">
<style type="text/css">
	.st0{fill:#FFFFFF;}
	.st1{fill:#FFFFFF;stroke:#FFFFFF;stroke-miterlimit:10;}
</style>
<g>
	<g>
		<path d="M392.7,0H85.5C38.4,0.1,0.3,38.2,0.2,85.3v307.2c0.1,47.1,38.2,85.3,85.3,85.3h307.2c47.1-0.1,85.3-38.2,85.3-85.3V85.3
			C478,38.2,439.8,0.1,392.7,0z M443.9,392.5c0,28.3-22.9,51.2-51.2,51.2H85.5c-28.3,0-51.2-22.9-51.2-51.2V85.3
			c0-28.3,22.9-51.2,51.2-51.2h307.2c28.3,0,51.2,22.9,51.2,51.2L443.9,392.5L443.9,392.5z"/>
	</g>
</g>
<g>
	<path class="st0" d="M384.5,34.1c0,0-277.1,0-299,0c-34.5,0-51.2,29.2-51.2,51.2v301.2c0,36.2,12.4,57.2,60,57.2h294
		c32.4,0,56.8-19,56.8-59.4V99C445.1,58.6,429.9,34.1,384.5,34.1z M414.7,370.6c0,24.3-19.6,43.9-43.9,43.9H107.4
		c-24.3,0-43.9-19.6-43.9-43.9V107.3c0-24.3,19.6-43.9,43.9-43.9h263.4c24.3,0,43.9,19.6,43.9,43.9L414.7,370.6L414.7,370.6z"/>
</g>
<rect x="50.4" y="49.7" class="st1" width="370.5" height="367.4"/>
<g>
	<polygon points="174.8,381.7 173.7,338.9 365.2,338.9 365.2,381.3 	"/>
	<circle cx="183.6" cy="124.4" r="29.8"/>
	<path d="M175.8,160.4c0,0,13.1-0.5,22.1,7.5c2.4,2.1-9.1,72-8,74.1s34.4,32.5,33.9,34.9s-1,39.4-3.2,42s-7,4.8-12.3,4.8
		s-10.9-0.8-10.9-5.3s2.9-25.1,1.3-26.7c-1.6-1.6-26.4-26.4-30.1-25.9s-16.5,110.3-18.4,113s-8.3,4.5-12.8,4.5s-14.1-2.7-13.6-5.9
		c0.5-3.2,31.4-210.3,34.1-213.1C162.8,159.6,175.8,160.4,175.8,160.4z"/>
	<path d="M134.7,179.3c0,0-10.8,10.1-12.4,15.2c-1.6,5.1-9.2,47.5-9.5,48.9c-0.4,2.1,5.3,5.5,7.2,5.8c6.4,0,8.2-2.4,9-5
		c1.2-5.7,6-37.1,7.9-39.5s4-7.6,5.8-9.4c0,0,4.6-24.2,4.9-27.1C147.8,166.3,134.7,179.3,134.7,179.3z"/>
	<path d="M206.7,173.5c1.9,0.3,14.2,21.3,17.1,23.5c3.2,2.4,22.9,15.5,24,16s2.1,7.3,0.8,9.7c-0.6,1.2-5.1,6.8-8.6,5.2
		s-19.5-10.3-22.8-13c-2.8-2.3-14.2-13.4-13.6-16C204,196.1,206.7,173.5,206.7,173.5z"/>
</g>
</svg>
