<?xml version="1.0" encoding="utf-8"?>
<!-- Generator: Adobe Illustrator 25.3.1, SVG Export Plug-In . SVG Version: 6.00 Build 0)  -->
<svg version="1.1" id="Ebene_1" xmlns="http://www.w3.org/2000/svg" xmlns:xlink="http://www.w3.org/1999/xlink" x="0px" y="0px"
	 viewBox="0 0 477.9 477.9" style="enable-background:new 0 0 477.9 477.9;" xml:space="preserve">
<style type="text/css">
	.st0{fill:#FFFFFF;}
	.st1{stroke:#FFFFFF;stroke-width:1.000000e-02;stroke-miterlimit:10;}
</style>
<g>
	<g>
		<path d="M392.7,0H85.5C38.4,0.1,0.3,38.2,0.2,85.3v307.2c0.1,47.1,38.2,85.3,85.3,85.3h307.2c47.1-0.1,85.3-38.2,85.3-85.3V85.3
			C478,38.2,439.8,0.1,392.7,0z M443.9,392.5c0,28.3-22.9,51.2-51.2,51.2H85.5c-28.3,0-51.2-22.9-51.2-51.2V85.3
			c0-28.3,22.9-51.2,51.2-51.2h307.2c28.3,0,51.2,22.9,51.2,51.2L443.9,392.5L443.9,392.5z"/>
	</g>
</g>
<g>
	<path class="st0" d="M384.5,34.1c0,0-277.1,0-299,0c-34.5,0-51.2,29.2-51.2,51.2v301.2c0,36.2,12.4,57.2,60,57.2h294
		c32.4,0,56.8-19,56.8-59.4V99C445.1,58.6,429.9,34.1,384.5,34.1z M414.7,370.6c0,24.3-19.6,43.9-43.9,43.9H107.4
		c-24.3,0-43.9-19.6-43.9-43.9V107.3c0-24.3,19.6-43.9,43.9-43.9h263.4c24.3,0,43.9,19.6,43.9,43.9L414.7,370.6L414.7,370.6z"/>
</g>
<rect x="52" y="46.9" class="st0" width="372" height="382"/>
<g>
	<g transform="translate(0.000000,1280.000000) scale(0.100000,-0.100000)">
		<path class="st1" d="M1736.3,11731.1c-59.8-19.6-110.4-63.1-138.5-118.9c-28.4-56.3-32.5-128.2-11-187.5
			c27-73.7,88.2-128.6,166.4-149.1c22.2-5.9,66-7.9,91-4.4c64.4,9.2,124.7,47.5,162.3,102.7c38.9,57.6,50.3,135.6,29.5,202
			c-16.5,52.1-51.4,98.5-96.3,127.7c-23.3,15.2-32.8,19.6-56.3,27.3c-20,6.6-20,6.6-74.1,6.6
			C1755.9,11737.3,1754.8,11737.3,1736.3,11731.1z"/>
		<path class="st1" d="M1781.4,11189.8c-84.4-11.2-155.4-73.2-179.6-157.2l-5.1-17.4v-427.6V10160l6.2-19.3
			c25.9-83.1,91-139.8,175.9-153.2c19.1-3.1,56.1-2,72.6,2.2c8.1,2.2,11.9,2.2,15.4,0.2c3.5-1.8,107.7-2.6,400.3-3.1l395.5-0.4
			l195.9-339c107.7-186.4,196.5-339.7,197.4-340.3c0.9-0.9,18.7,8.1,39.6,20.2c20.9,12.1,41.3,23.1,45.3,24.4s74.7,41.8,157.2,89.9
			c160.1,93.2,164.7,96.3,177.9,120.7c21.5,39.8,15.6,86.4-15.2,119.8c-20.9,22.4-44.6,32.8-75.4,32.8c-27.5,0-37.8-4.6-119.8-52.5
			c-41.1-24-75.4-43.1-76.1-42.2c-0.7,0.7-76.7,131.9-169.1,291.5c-92.1,159.6-168.4,291.1-169.5,292.4c-1.3,1.1-2.9,1.1-4.6-0.7
			c-4.2-4.2-6.2-3.1-6.2,3.7c0,9.7-8.4,34.7-17.1,51.9c-10.6,20.2-37.8,47.9-58.7,59.6c-8.4,4.6-23.3,11-33,14.1l-17.6,5.5
			l-344.5,0.7l-344.7,0.7v88.8v89l266.7,0.4l266.5,0.7l13,4.8c7.3,2.9,18.7,9.2,25.3,14.3c48.6,38,46.4,112.8-4.4,146.6
			c-24.8,16.7-5.3,15.6-301.2,15.6h-265.6l-0.7,156.8c-0.9,155-0.9,156.8-5.7,174.1c-22,77.2-80.5,135-155.9,154.1
			C1838.7,11190.7,1804,11192.9,1781.4,11189.8z"/>
		<path class="st1" d="M1449.4,10616c-61.8-38-117-82.7-172.6-139.6c-71.9-73.4-124.9-149.1-169.5-241.6
			c-85.7-178.1-110.4-377.5-71-574.5c28.4-141.6,90.1-273.9,182.5-389.6c45.1-56.5,123.1-130.2,184.5-173.5
			c69.9-49.7,153-91.9,237.4-120.5c57.6-19.6,131-35.4,197.9-42.9c40.2-4.4,152.4-3.7,192.4,1.1c69.3,8.6,123.8,20.9,188,42.2
			c204.2,67.9,378.4,207.5,490.9,394c22.4,36.9,53.2,99.4,68.4,138.5l11.2,28.8l-65.3,113.4c-36.1,62.4-66,113.4-66.6,113.4
			c-0.7,0-2.9-12.8-5.1-28.1c-14.7-106-54.3-209.1-115.4-301c-80.9-122-200.5-218.8-336.8-273.1c-88.2-35.2-173.7-51.2-272.6-51.2
			c-195,0.2-375.5,75.2-514.2,213.9c-123.1,123.1-196.1,281.2-211.5,458.2c-3.1,35.6-1.3,116.3,3.5,150.6
			c24.6,179.2,111,341.2,242.5,455.1l26.8,23.1v108.4c0,59.4-0.9,108.2-1.8,108.2S1461.3,10623.3,1449.4,10616z"/>
	</g>
</g>
<g>
	<path d="M249.7,160.8l-15.4-64.4h13.3l9.7,44.3l11.8-44.3l15.5-1l11.3,45l9.9-44h13.1l-15.6,64.4h-13.8l-12.8-48.2l-12.8,48.2
		L249.7,160.8L249.7,160.8z"/>
	<path d="M371.7,136.2l12.6,4c-1.9,7-5.1,12.3-9.6,15.7s-10.2,5.1-17.1,5.1c-8.6,0-15.6-2.9-21.1-8.8s-8.3-13.8-8.3-24
		c0-10.7,2.8-19.1,8.3-25s12.8-8.9,21.8-8.9c7.9,0,14.3,2.3,19.2,7c2.9,2.8,5.1,6.7,6.6,11.9l-12.9,3.1c-0.8-3.3-2.4-6-4.8-7.9
		s-5.4-2.9-8.8-2.9c-4.8,0-8.7,1.7-11.6,5.1c-3,3.4-4.5,9-4.5,16.7c0,8.1,1.5,13.9,4.4,17.4s6.7,5.2,11.4,5.2c3.5,0,6.4-1.1,8.9-3.3
		S370.6,140.9,371.7,136.2z"/>
</g>
</svg>
