<?xml version="1.0" encoding="utf-8"?>
<!-- Generator: Adobe Illustrator 25.2.2, SVG Export Plug-In . SVG Version: 6.00 Build 0)  -->
<svg version="1.1" id="Ebene_1" xmlns="http://www.w3.org/2000/svg" xmlns:xlink="http://www.w3.org/1999/xlink" x="0px" y="0px"
	 viewBox="0 0 477.9 477.9" style="enable-background:new 0 0 477.9 477.9;" xml:space="preserve">
<style type="text/css">
	.st0{fill:#FFFFFF;}
</style>
<g>
	<g>
		<path d="M392.7,0H85.5C38.4,0.1,0.3,38.2,0.2,85.3v307.2c0.1,47.1,38.2,85.3,85.3,85.3h307.2c47.1-0.1,85.3-38.2,85.3-85.3V85.3
			C478,38.2,439.8,0.1,392.7,0z M443.9,392.5c0,28.3-22.9,51.2-51.2,51.2H85.5c-28.3,0-51.2-22.9-51.2-51.2V85.3
			c0-28.3,22.9-51.2,51.2-51.2h307.2c28.3,0,51.2,22.9,51.2,51.2L443.9,392.5L443.9,392.5z"/>
	</g>
</g>
<g>
	<path class="st0" d="M384.5,34.1c0,0-277.1,0-299,0c-34.5,0-51.2,29.2-51.2,51.2v301.2c0,36.2,12.4,57.2,60,57.2h294
		c32.4,0,56.8-19,56.8-59.4V99C445.1,58.6,429.9,34.1,384.5,34.1z M414.7,370.6c0,24.3-19.6,43.9-43.9,43.9H107.4
		c-24.3,0-43.9-19.6-43.9-43.9V107.3c0-24.3,19.6-43.9,43.9-43.9h263.4c24.3,0,43.9,19.6,43.9,43.9L414.7,370.6L414.7,370.6z"/>
</g>
<rect x="63.5" y="57.4" class="st0" width="360" height="360"/>
<g>
	<path id="toilets" d="M223.1,91.1v295.6h31.7V91.1H223.1z M143.9,112.2c-17.5,0-31.7,14.2-31.7,31.7s14.2,31.7,31.7,31.7
		s31.7-14.2,31.7-31.7C175.6,126.4,161.4,112.2,143.9,112.2z M333.9,112.2c-17.5,0-31.7,14.2-31.7,31.7s14.2,31.7,31.7,31.7
		s31.7-14.2,31.7-31.7S351.4,112.2,333.9,112.2z M122.8,196.7c-12.7,0-21.1,12-21.1,21.1c0,11.1,26.4,31.6,26.4,42.2
		c0,11.7-36.9,21.1-36.9,63.3h36.9v63.3h31.7v-63.3h36.9c0-42.2-36.9-52.2-36.9-63.3s26.4-30.6,26.4-42.2c0-8.6-9-21.1-21.1-21.1
		H122.8z M302.2,196.7c-11.1,0-21.1,10.1-21.1,21.1c0,21.1,36.9,84.8,36.9,105.6v63.3h31.7v-63.3c0-20.4,36.9-84.4,36.9-105.6
		c0-11.7-9.5-21.1-21.1-21.1L302.2,196.7L302.2,196.7z"/>
</g>
</svg>
